<svg width="80" height="80" viewBox="0 0 80 80" fill="none" xmlns="http://www.w3.org/2000/svg">
  <rect x="16" y="0" width="16" height="16" rx="2" fill="#F96D00"/>
  <rect x="32" y="0" width="16" height="16" rx="2" fill="#F96D00"/>
  <rect x="0" y="16" width="16" height="16" rx="2" fill="#F96D00"/>
  <rect x="16" y="16" width="16" height="16" rx="2" fill="#F96D00"/>
  <rect x="48" y="16" width="16" height="16" rx="2" fill="#F96D00"/>
  <rect x="64" y="16" width="16" height="16" rx="2" fill="#F96D00"/>
  <rect x="0" y="32" width="16" height="16" rx="2" fill="#F96D00"/>
  <rect x="48" y="32" width="16" height="16" rx="2" fill="#F96D00"/>
  <rect x="64" y="32" width="16" height="16" rx="2" fill="#F96D00"/>
  <rect x="0" y="48" width="16" height="16" rx="2" fill="#F96D00"/>
  <rect x="16" y="48" width="16" height="16" rx="2" fill="#F96D00"/>
  <rect x="48" y="48" width="16" height="16" rx="2" fill="#F96D00"/>
  <rect x="64" y="48" width="16" height="16" rx="2" fill="#F96D00"/>
  <rect x="16" y="64" width="16" height="16" rx="2" fill="#F96D00"/>
  <rect x="32" y="64" width="16" height="16" rx="2" fill="#F96D00"/>
</svg>
